<mxfile host="app.diagrams.net" modified="2023-05-20T15:07:55.972Z" agent="Mozilla/5.0 (Windows NT 10.0; Win64; x64) AppleWebKit/537.36 (KHTML, like Gecko) Chrome/113.0.0.0 Safari/537.36" etag="4D-PrapceASux9z8WcAA" version="21.2.6" type="device">
  <diagram name="Página-1" id="9li8Qu8rQ_xVZ-kCwBLJ">
    <mxGraphModel dx="2593" dy="884" grid="1" gridSize="10" guides="1" tooltips="1" connect="1" arrows="1" fold="1" page="1" pageScale="1" pageWidth="1169" pageHeight="827" math="0" shadow="0">
      <root>
        <mxCell id="0" />
        <mxCell id="1" parent="0" />
        <mxCell id="RvqsDmh5F9aciFc1GWnq-1" value="" style="rounded=0;whiteSpace=wrap;html=1;" parent="1" vertex="1">
          <mxGeometry x="200" y="77" width="900" height="713" as="geometry" />
        </mxCell>
        <mxCell id="RvqsDmh5F9aciFc1GWnq-2" value="Usuário" style="shape=umlActor;verticalLabelPosition=bottom;verticalAlign=top;html=1;outlineConnect=0;" parent="1" vertex="1">
          <mxGeometry x="50" y="357.5" width="110" height="200" as="geometry" />
        </mxCell>
        <mxCell id="RvqsDmh5F9aciFc1GWnq-3" value="" style="ellipse;whiteSpace=wrap;html=1;" parent="1" vertex="1">
          <mxGeometry x="290" y="213.5" width="215" height="76.5" as="geometry" />
        </mxCell>
        <mxCell id="RvqsDmh5F9aciFc1GWnq-4" value="Fazer login" style="text;strokeColor=none;fillColor=none;html=1;fontSize=24;fontStyle=1;verticalAlign=middle;align=center;" parent="1" vertex="1">
          <mxGeometry x="332.5" y="234.25" width="130" height="35" as="geometry" />
        </mxCell>
        <mxCell id="RvqsDmh5F9aciFc1GWnq-9" value="" style="endArrow=classic;html=1;rounded=0;entryX=0;entryY=0.5;entryDx=0;entryDy=0;exitX=0.5;exitY=0.5;exitDx=0;exitDy=0;exitPerimeter=0;" parent="1" source="RvqsDmh5F9aciFc1GWnq-2" target="RvqsDmh5F9aciFc1GWnq-3" edge="1">
          <mxGeometry width="50" height="50" relative="1" as="geometry">
            <mxPoint x="140" y="633.5" as="sourcePoint" />
            <mxPoint x="255" y="313.5" as="targetPoint" />
          </mxGeometry>
        </mxCell>
        <mxCell id="RvqsDmh5F9aciFc1GWnq-23" value="&lt;font style=&quot;font-size: 25px;&quot;&gt;Cadastro de Produtos&lt;/font&gt;" style="text;strokeColor=none;fillColor=none;html=1;fontSize=24;fontStyle=1;verticalAlign=middle;align=center;" parent="1" vertex="1">
          <mxGeometry x="460" y="90" width="430" height="80" as="geometry" />
        </mxCell>
        <mxCell id="RvqsDmh5F9aciFc1GWnq-28" value="" style="endArrow=classic;html=1;rounded=0;entryX=0;entryY=0.5;entryDx=0;entryDy=0;exitX=0.5;exitY=0.5;exitDx=0;exitDy=0;exitPerimeter=0;" parent="1" source="RvqsDmh5F9aciFc1GWnq-2" target="FvoQAKr3rN_1-PkEqKmN-3" edge="1">
          <mxGeometry width="50" height="50" relative="1" as="geometry">
            <mxPoint x="140" y="633.5" as="sourcePoint" />
            <mxPoint x="315.0000000000032" y="521.75" as="targetPoint" />
          </mxGeometry>
        </mxCell>
        <mxCell id="RvqsDmh5F9aciFc1GWnq-31" value="" style="endArrow=classic;html=1;rounded=0;entryX=0;entryY=0.5;entryDx=0;entryDy=0;exitX=0.5;exitY=0.5;exitDx=0;exitDy=0;exitPerimeter=0;" parent="1" source="RvqsDmh5F9aciFc1GWnq-2" target="FvoQAKr3rN_1-PkEqKmN-8" edge="1">
          <mxGeometry width="50" height="50" relative="1" as="geometry">
            <mxPoint x="140" y="633.5" as="sourcePoint" />
            <mxPoint x="315" y="756" as="targetPoint" />
          </mxGeometry>
        </mxCell>
        <mxCell id="RvqsDmh5F9aciFc1GWnq-34" value="" style="endArrow=classic;html=1;rounded=0;entryX=0;entryY=0.5;entryDx=0;entryDy=0;exitX=0.5;exitY=0.5;exitDx=0;exitDy=0;exitPerimeter=0;" parent="1" source="RvqsDmh5F9aciFc1GWnq-2" target="FvoQAKr3rN_1-PkEqKmN-10" edge="1">
          <mxGeometry width="50" height="50" relative="1" as="geometry">
            <mxPoint x="140" y="633.5" as="sourcePoint" />
            <mxPoint x="315" y="916" as="targetPoint" />
          </mxGeometry>
        </mxCell>
        <mxCell id="RvqsDmh5F9aciFc1GWnq-39" value="" style="endArrow=classic;html=1;rounded=0;entryX=0;entryY=0.5;entryDx=0;entryDy=0;exitX=0.5;exitY=0.5;exitDx=0;exitDy=0;exitPerimeter=0;" parent="1" source="RvqsDmh5F9aciFc1GWnq-2" target="FvoQAKr3rN_1-PkEqKmN-6" edge="1">
          <mxGeometry width="50" height="50" relative="1" as="geometry">
            <mxPoint x="150" y="634" as="sourcePoint" />
            <mxPoint x="545.0000000000082" y="492.5" as="targetPoint" />
          </mxGeometry>
        </mxCell>
        <mxCell id="RvqsDmh5F9aciFc1GWnq-43" value="" style="endArrow=none;dashed=1;html=1;rounded=0;entryX=0;entryY=0.5;entryDx=0;entryDy=0;exitX=1;exitY=0.5;exitDx=0;exitDy=0;" parent="1" source="FvoQAKr3rN_1-PkEqKmN-6" target="FvoQAKr3rN_1-PkEqKmN-14" edge="1">
          <mxGeometry width="50" height="50" relative="1" as="geometry">
            <mxPoint x="854.9999999999909" y="492.5" as="sourcePoint" />
            <mxPoint x="985" y="481" as="targetPoint" />
          </mxGeometry>
        </mxCell>
        <mxCell id="RvqsDmh5F9aciFc1GWnq-44" value="" style="endArrow=none;dashed=1;html=1;rounded=0;entryX=0;entryY=0.5;entryDx=0;entryDy=0;exitX=1;exitY=0.5;exitDx=0;exitDy=0;" parent="1" source="FvoQAKr3rN_1-PkEqKmN-6" target="FvoQAKr3rN_1-PkEqKmN-16" edge="1">
          <mxGeometry width="50" height="50" relative="1" as="geometry">
            <mxPoint x="854.9999999999909" y="492.5" as="sourcePoint" />
            <mxPoint x="995" y="491.5" as="targetPoint" />
          </mxGeometry>
        </mxCell>
        <mxCell id="RvqsDmh5F9aciFc1GWnq-45" value="&amp;lt;&amp;lt;extend&amp;gt;&amp;gt;" style="text;strokeColor=none;fillColor=none;html=1;fontSize=24;fontStyle=1;verticalAlign=middle;align=center;" parent="1" vertex="1">
          <mxGeometry x="780" y="370" width="140" height="20" as="geometry" />
        </mxCell>
        <mxCell id="RvqsDmh5F9aciFc1GWnq-46" value="&amp;lt;&amp;lt;extend&amp;gt;&amp;gt;" style="text;strokeColor=none;fillColor=none;html=1;fontSize=24;fontStyle=1;verticalAlign=middle;align=center;" parent="1" vertex="1">
          <mxGeometry x="790" y="517.5" width="140" height="20" as="geometry" />
        </mxCell>
        <mxCell id="RvqsDmh5F9aciFc1GWnq-50" value="" style="endArrow=none;dashed=1;html=1;rounded=0;entryX=0.5;entryY=0;entryDx=0;entryDy=0;exitX=0.5;exitY=1;exitDx=0;exitDy=0;" parent="1" source="FvoQAKr3rN_1-PkEqKmN-6" target="FvoQAKr3rN_1-PkEqKmN-12" edge="1">
          <mxGeometry width="50" height="50" relative="1" as="geometry">
            <mxPoint x="700" y="555" as="sourcePoint" />
            <mxPoint x="995" y="786.5" as="targetPoint" />
          </mxGeometry>
        </mxCell>
        <mxCell id="RvqsDmh5F9aciFc1GWnq-51" value="&amp;lt;&amp;lt;extend&amp;gt;&amp;gt;" style="text;strokeColor=none;fillColor=none;html=1;fontSize=24;fontStyle=1;verticalAlign=middle;align=center;" parent="1" vertex="1">
          <mxGeometry x="585" y="537.5" width="140" height="20" as="geometry" />
        </mxCell>
        <mxCell id="FvoQAKr3rN_1-PkEqKmN-1" value="&lt;font style=&quot;font-size: 35px;&quot;&gt;Diagrama de Caso de Uso&lt;/font&gt;" style="text;html=1;strokeColor=none;fillColor=none;align=center;verticalAlign=middle;whiteSpace=wrap;rounded=0;" vertex="1" parent="1">
          <mxGeometry x="390" y="20" width="440" height="30" as="geometry" />
        </mxCell>
        <mxCell id="FvoQAKr3rN_1-PkEqKmN-3" value="" style="ellipse;whiteSpace=wrap;html=1;" vertex="1" parent="1">
          <mxGeometry x="290" y="320" width="215" height="76.5" as="geometry" />
        </mxCell>
        <mxCell id="FvoQAKr3rN_1-PkEqKmN-4" value="Cadastrar&lt;br style=&quot;border-color: var(--border-color);&quot;&gt;Usuário" style="text;strokeColor=none;fillColor=none;html=1;fontSize=24;fontStyle=1;verticalAlign=middle;align=center;" vertex="1" parent="1">
          <mxGeometry x="332.5" y="340" width="130" height="35" as="geometry" />
        </mxCell>
        <mxCell id="FvoQAKr3rN_1-PkEqKmN-6" value="" style="ellipse;whiteSpace=wrap;html=1;" vertex="1" parent="1">
          <mxGeometry x="545" y="419.25" width="215" height="76.5" as="geometry" />
        </mxCell>
        <mxCell id="FvoQAKr3rN_1-PkEqKmN-7" value="Gerenciar &lt;br&gt;Estoque" style="text;strokeColor=none;fillColor=none;html=1;fontSize=24;fontStyle=1;verticalAlign=middle;align=center;" vertex="1" parent="1">
          <mxGeometry x="590" y="440" width="130" height="35" as="geometry" />
        </mxCell>
        <mxCell id="FvoQAKr3rN_1-PkEqKmN-8" value="" style="ellipse;whiteSpace=wrap;html=1;" vertex="1" parent="1">
          <mxGeometry x="290" y="510" width="215" height="76.5" as="geometry" />
        </mxCell>
        <mxCell id="FvoQAKr3rN_1-PkEqKmN-9" value="Cadastrar&lt;br style=&quot;border-color: var(--border-color);&quot;&gt;Produto" style="text;strokeColor=none;fillColor=none;html=1;fontSize=24;fontStyle=1;verticalAlign=middle;align=center;" vertex="1" parent="1">
          <mxGeometry x="332.5" y="530.75" width="130" height="35" as="geometry" />
        </mxCell>
        <mxCell id="FvoQAKr3rN_1-PkEqKmN-10" value="" style="ellipse;whiteSpace=wrap;html=1;" vertex="1" parent="1">
          <mxGeometry x="290" y="620" width="215" height="76.5" as="geometry" />
        </mxCell>
        <mxCell id="FvoQAKr3rN_1-PkEqKmN-11" value="Listar&lt;br&gt;Produtos" style="text;strokeColor=none;fillColor=none;html=1;fontSize=24;fontStyle=1;verticalAlign=middle;align=center;" vertex="1" parent="1">
          <mxGeometry x="332.5" y="640.75" width="130" height="35" as="geometry" />
        </mxCell>
        <mxCell id="FvoQAKr3rN_1-PkEqKmN-12" value="" style="ellipse;whiteSpace=wrap;html=1;" vertex="1" parent="1">
          <mxGeometry x="547.5" y="586.5" width="215" height="76.5" as="geometry" />
        </mxCell>
        <mxCell id="FvoQAKr3rN_1-PkEqKmN-13" value="Gerar PDF" style="text;strokeColor=none;fillColor=none;html=1;fontSize=24;fontStyle=1;verticalAlign=middle;align=center;" vertex="1" parent="1">
          <mxGeometry x="590" y="607.25" width="130" height="35" as="geometry" />
        </mxCell>
        <mxCell id="FvoQAKr3rN_1-PkEqKmN-14" value="" style="ellipse;whiteSpace=wrap;html=1;" vertex="1" parent="1">
          <mxGeometry x="800" y="260" width="215" height="76.5" as="geometry" />
        </mxCell>
        <mxCell id="FvoQAKr3rN_1-PkEqKmN-15" value="Editar&lt;br&gt;Produto" style="text;strokeColor=none;fillColor=none;html=1;fontSize=24;fontStyle=1;verticalAlign=middle;align=center;" vertex="1" parent="1">
          <mxGeometry x="842.5" y="280.75" width="130" height="35" as="geometry" />
        </mxCell>
        <mxCell id="FvoQAKr3rN_1-PkEqKmN-16" value="" style="ellipse;whiteSpace=wrap;html=1;" vertex="1" parent="1">
          <mxGeometry x="810" y="565.75" width="215" height="76.5" as="geometry" />
        </mxCell>
        <mxCell id="FvoQAKr3rN_1-PkEqKmN-18" value="Excluir&lt;br&gt;Produto" style="text;strokeColor=none;fillColor=none;html=1;fontSize=24;fontStyle=1;verticalAlign=middle;align=center;" vertex="1" parent="1">
          <mxGeometry x="852.5" y="586.5" width="130" height="35" as="geometry" />
        </mxCell>
      </root>
    </mxGraphModel>
  </diagram>
</mxfile>
